# This file uses centimeters as units for non-parametric coordinates.

mtllib backboard.mtl
g default
v -0.270032 -1.927040 7.421252
v 0.273224 -1.927040 7.421252
v -0.365102 -2.152219 4.585311
v 0.368294 -2.152219 4.585311
v -0.177068 6.245417 7.094284
v 0.414520 4.086959 6.891209
v 0.001596 -1.988485 7.506002
v -0.365102 -1.044687 7.534007
v -0.291152 7.230521 4.549973
v 0.356487 -1.998638 6.879677
v 0.001596 -1.044687 7.692157
v 0.162721 -1.968181 7.477996
v 0.453486 -1.568696 7.328632
v -0.498909 -1.572876 6.889287
v 0.001596 7.589621 -0.178691
v -0.465110 -2.309546 -0.178691
v 0.201613 -2.538873 -0.178691
v 0.368294 -2.452875 -0.178691
v -0.531782 6.302712 -0.178691
v 0.518306 6.891764 -0.178691
v 0.231867 7.061923 5.968654
v 0.001596 2.584411 7.692157
v -0.515115 2.584411 6.891209
v 0.534975 2.584411 -0.178691
v 0.518306 2.584411 6.891209
v 0.368294 -2.211933 2.387825
v -0.473472 4.086959 4.585311
v -0.282160 5.350354 5.956268
v 0.271563 5.352858 6.799143
v 0.211671 6.249968 7.129720
v 0.201613 -2.238216 4.585311
v 0.368294 7.435311 -0.178691
v -0.365102 -2.452875 -0.178691
v 0.534975 -1.044687 -0.178691
v -0.365102 7.435311 -0.178691
v 0.534975 6.302712 -0.178691
v 0.299773 7.245217 4.552601
v 0.191841 6.792858 6.581143
v -0.365102 2.584411 7.534007
v 0.368294 2.584411 7.534007
v 0.368294 -1.044687 7.534007
v -0.215569 7.029553 5.962357
v 0.368294 -2.069712 6.030322
v -0.159529 -1.968181 7.477996
v -0.365102 -2.069712 6.030322
v 0.321068 -1.968181 7.290192
v -0.317875 -1.968181 7.290192
v -0.353295 -1.998638 6.879677
v 0.360326 7.412901 2.386016
v -0.195517 7.527295 2.386197
v -0.365102 -2.211933 2.387825
v -0.531782 -1.044687 6.030322
v 0.201613 -2.297932 2.387825
v 0.518306 -1.574270 4.585311
v -0.169039 6.744374 6.567214
v -0.498649 6.885871 2.385654
v -0.357889 7.415033 2.386197
v 0.534975 5.394650 2.387825
v 0.455608 7.230469 2.386016
v 0.001573 4.073014 7.348103
v -0.280421 4.072154 7.192183
v -0.531782 4.086959 2.387825
v 0.301606 4.072059 7.194925
v 0.468302 1.091774 7.336320
v 0.273224 -1.927040 -7.778634
v 0.001596 -1.988485 -7.863383
v -0.270032 -1.927040 -7.778634
v 0.001596 -1.044687 -8.049539
v -0.291152 7.230521 -4.907355
v -0.215569 7.029553 -6.319739
v 0.191841 6.792858 -6.938526
v -0.198421 -2.238216 -4.942693
v 0.368294 -2.152219 -4.942693
v 0.368294 -2.069712 -6.387704
v 0.356487 -1.998638 -7.237059
v 0.162721 -1.968181 -7.835378
v -0.159529 -1.968181 -7.835378
v -0.353295 -1.998638 -7.237059
v -0.365102 -2.152219 -4.942693
v -0.365102 -2.069712 -6.387704
v 0.502101 -1.572876 -7.246670
v 0.518306 -1.574270 -4.942693
v 0.368294 -1.044687 -7.891389
v 0.321068 -1.968181 -7.647574
v -0.317875 -1.968181 -7.647574
v -0.515114 -1.044687 -7.248591
v -0.450294 -1.568696 -7.686015
v 0.360326 7.412901 -2.743398
v 0.368294 7.435311 -0.178691
v 0.001596 7.589621 -0.178691
v -0.195517 7.527295 -2.743579
v -0.365102 -2.211933 -2.745207
v -0.515115 -1.574269 -4.942693
v -0.365102 -2.452875 -0.178691
v 0.368294 -2.211933 -2.745207
v -0.198421 -2.538873 -0.178691
v -0.198421 -2.297932 -2.745207
v 0.368294 -2.452875 -0.178691
v 0.534975 -1.044687 -0.178691
v 0.211671 6.249968 -7.487103
v -0.177068 6.245417 -7.451666
v -0.169039 6.744374 -6.924595
v -0.282160 5.350354 -6.313650
v -0.498649 6.885871 -2.743036
v -0.531782 6.302712 -0.178691
v -0.357889 7.415033 -2.743579
v -0.365102 7.435311 -0.178691
v 0.534975 5.394650 -2.745207
v 0.299773 7.245217 -4.909983
v 0.455608 7.230469 -2.743398
v 0.271563 5.352858 -7.156526
v 0.231867 7.061923 -6.326036
v 0.001596 2.584411 -8.049539
v 0.001573 4.073014 -7.705484
v -0.365102 -1.044687 -7.891389
v -0.365102 2.584411 -7.891389
v -0.531782 2.584411 -4.942693
v -0.515115 2.584411 -7.248592
v -0.531782 -1.044687 -0.178691
v -0.531782 5.394650 -2.745207
v -0.531782 4.086959 -0.178691
v 0.534975 6.302712 -0.178691
v 0.518306 2.584411 -7.248592
v 0.414520 4.086959 -7.248591
v 0.301606 4.072059 -7.552308
v 0.368294 2.584411 -7.891389
vt 0.562500 0.000000
vt 0.625000 0.000000
vt 0.500000 0.028308
vt 0.500000 0.000000
vt 0.589152 0.028308
vt 0.410848 0.028308
vt 0.375000 0.000000
vt 0.437500 0.000000
vt 0.625000 0.260287
vt 0.625000 0.270574
vt 0.625000 0.265430
vt 0.375000 0.270574
vt 0.375000 0.265430
vt 0.625000 0.979426
vt 0.625000 0.984570
vt 0.625000 0.989713
vt 0.562500 1.000000
vt 0.562500 0.958013
vt 0.625000 0.994857
vt 0.625000 1.000000
vt 0.500000 1.000000
vt 0.375000 1.000000
vt 0.437500 1.000000
vt 0.375000 0.994857
vt 0.375000 0.989713
vt 0.375000 0.979426
vt 0.375000 0.984570
vt 0.645574 0.000000
vt 0.640430 0.000000
vt 0.617597 0.014404
vt 0.635287 0.000000
vt 0.630143 0.000000
vt 0.369857 0.000000
vt 0.365173 0.014404
vt 0.354426 0.000000
vt 0.359570 0.000000
vt 0.364713 0.000000
vt 0.625000 0.324662
vt 0.625000 0.378751
vt 0.500000 0.378663
vt 0.375000 0.324662
vt 0.437500 0.330780
vt 0.300338 0.000000
vt 0.246308 0.005862
vt 0.347333 0.028308
vt 0.625000 0.925338
vt 0.562500 0.919220
vt 0.562500 0.871308
vt 0.375000 0.925338
vt 0.375000 0.871249
vt 0.673870 0.014404
vt 0.699662 0.000000
vt 0.753751 0.000000
vt 0.753633 0.028308
vt 0.410848 0.216119
vt 0.375000 0.260287
vt 0.354426 0.250000
vt 0.359570 0.250000
vt 0.347333 0.192907
vt 0.289631 0.231669
vt 0.246367 0.216119
vt 0.300338 0.250000
vt 0.246249 0.250000
vt 0.634761 0.159480
vt 0.711899 0.192907
vt 0.753633 0.216119
vt 0.753648 0.231669
vt 0.699662 0.250000
vt 0.705780 0.242111
vt 0.634761 0.192907
vt 0.645574 0.250000
vt 0.640430 0.250000
vt 0.635287 0.250000
vt 0.615804 0.216119
vt 0.500000 0.121073
vt 0.500000 0.159480
vt 0.410848 0.121073
vt 0.365239 0.121073
vt 0.384196 0.159480
vt 0.323836 0.159480
vt 0.288101 0.159480
vt 0.753633 0.121073
vt 0.634761 0.121073
vt 0.615804 0.159480
vt 0.589152 0.121073
vt 0.615804 0.082919
vt 0.562500 0.000000
vt 0.625000 0.000000
vt 0.500000 0.000000
vt 0.500000 0.028308
vt 0.375000 0.000000
vt 0.437500 0.000000
vt 0.625000 0.265430
vt 0.625000 0.270574
vt 0.375000 0.270574
vt 0.375000 0.265430
vt 0.625000 0.260287
vt 0.437500 0.958013
vt 0.625000 0.984570
vt 0.625000 0.979426
vt 0.625000 0.989713
vt 0.625000 0.994857
vt 0.562500 1.000000
vt 0.625000 1.000000
vt 0.500000 1.000000
vt 0.437500 1.000000
vt 0.375000 1.000000
vt 0.375000 0.994857
vt 0.375000 0.989713
vt 0.375000 0.984570
vt 0.375000 0.979426
vt 0.634827 0.014404
vt 0.640430 0.000000
vt 0.645574 0.000000
vt 0.635287 0.000000
vt 0.673870 0.014404
vt 0.589152 0.028308
vt 0.630143 0.000000
vt 0.369857 0.000000
vt 0.364713 0.000000
vt 0.365239 0.028308
vt 0.382403 0.014404
vt 0.359570 0.000000
vt 0.354426 0.000000
vt 0.625000 0.324662
vt 0.753751 0.250000
vt 0.500000 0.378663
vt 0.375000 0.324662
vt 0.437500 0.330780
vt 0.300338 0.000000
vt 0.326130 0.014404
vt 0.246249 0.000000
vt 0.625000 0.925338
vt 0.437500 0.871308
vt 0.437500 0.919220
vt 0.375000 0.925338
vt 0.375000 0.871249
vt 0.699662 0.000000
vt 0.625000 0.871249
vt 0.753633 0.028308
vt 0.615804 0.216119
vt 0.410848 0.216119
vt 0.364713 0.250000
vt 0.359570 0.250000
vt 0.354426 0.250000
vt 0.347333 0.192907
vt 0.289631 0.231669
vt 0.246367 0.216119
vt 0.300338 0.250000
vt 0.375000 0.378751
vt 0.711899 0.192907
vt 0.753648 0.231669
vt 0.705780 0.242111
vt 0.645574 0.250000
vt 0.699662 0.250000
vt 0.640430 0.250000
vt 0.634761 0.192907
vt 0.500000 0.121073
vt 0.500000 0.159480
vt 0.410848 0.028308
vt 0.410848 0.121073
vt 0.365239 0.121073
vt 0.323836 0.121073
vt 0.246367 0.028308
vt 0.288101 0.192907
vt 0.246367 0.159480
vt 0.753633 0.216119
vt 0.634761 0.121073
vt 0.634761 0.159480
vt 0.615804 0.159480
vt 0.589152 0.121073
vn 0.000001 -0.995990 0.089463
vn 0.745594 -0.533193 0.399744
vn 0.000000 0.000000 1.000000
vn 0.888477 0.000000 0.458921
vn -0.660227 -0.604889 0.445207
vn -0.660227 -0.604889 0.445207
vn -0.660227 -0.604889 0.445207
vn -0.888477 -0.000000 0.458921
vn 0.994857 0.064498 0.078098
vn -0.959776 0.268425 0.082327
vn 0.971111 0.181684 0.154709
vn -0.924322 0.352119 0.147111
vn -0.799030 0.427366 0.422977
vn 0.971111 0.181684 0.154709
vn -0.000000 -0.999239 0.039006
vn 0.963529 -0.267524 0.006578
vn 0.960922 -0.276278 0.017301
vn 0.745594 -0.533193 0.399744
vn 0.745594 -0.533193 0.399744
vn -0.660227 -0.604889 0.445207
vn -0.960922 -0.276278 0.017301
vn -0.964003 -0.265704 0.009947
vn -0.960922 -0.276278 0.017301
vn 0.999974 0.000000 0.007228
vn 0.998699 0.000000 0.050984
vn -0.998700 -0.000000 0.050984
vn -0.911661 0.078305 0.403414
vn 0.930507 0.366274 -0.000001
vn -0.000044 1.000000 0.000000
vn 0.965765 0.257468 0.031763
vn -0.966017 0.256263 0.033764
vn -0.966017 0.256263 0.033764
vn -0.930326 0.366734 -0.000001
vn -0.883247 -0.467877 0.031072
vn -0.999974 0.000000 0.007228
vn -0.999459 -0.032877 0.000000
vn -0.842782 -0.538255 -0.000001
vn -1.000000 -0.000000 -0.000000
vn 0.906836 -0.421039 0.019347
vn 0.000000 -0.998013 0.063016
vn 0.000000 -1.000000 0.000000
vn 0.873369 -0.487059 0.000000
vn 1.000000 0.000000 0.000000
vn -0.973340 0.069263 0.218660
vn 0.886165 0.111731 0.449697
vn -0.946355 0.129174 0.296186
vn -0.996241 0.070439 0.050426
vn -0.999533 0.016836 0.025502
vn -0.966017 0.256263 0.033764
vn 0.909069 0.129794 0.395912
vn 0.999769 0.015951 0.014435
vn 1.000000 0.000000 0.000000
vn 0.930507 0.366274 -0.000001
vn 0.965765 0.257468 0.031763
vn 0.886165 0.111731 0.449697
vn 0.851232 0.061239 0.521203
vn -0.911661 0.078305 0.403414
vn 0.909069 0.129794 0.395912
vn -0.999499 0.012578 0.029060
vn -0.946355 0.129174 0.296186
vn -0.998653 0.049320 0.016093
vn 1.000000 -0.000000 0.000000
vn 0.996320 0.010648 0.085047
vn 0.888477 0.000000 0.458921
vn 0.000001 -0.995990 -0.089463
vn 0.000000 0.000000 -1.000000
vn 0.745594 -0.533193 -0.399744
vn 0.888477 0.000000 -0.458921
vn -0.660227 -0.604889 -0.445207
vn -0.660227 -0.604889 -0.445207
vn -0.660227 -0.604889 -0.445207
vn -0.888477 -0.000000 -0.458921
vn 0.994857 0.064498 -0.078098
vn 0.971111 0.181684 -0.154709
vn -0.959776 0.268425 -0.082327
vn -0.924322 0.352119 -0.147111
vn 0.971111 0.181684 -0.154709
vn -0.799030 0.427366 -0.422977
vn -0.964003 -0.265704 -0.009947
vn 0.960922 -0.276278 -0.017301
vn 0.963529 -0.267524 -0.006578
vn 0.745594 -0.533193 -0.399744
vn 0.745594 -0.533193 -0.399744
vn -0.660227 -0.604889 -0.445207
vn -0.660227 -0.604889 -0.445207
vn -0.964003 -0.265704 -0.009947
vn -0.960922 -0.276278 -0.017301
vn 0.998700 0.000000 -0.050984
vn 1.000000 0.000000 0.000000
vn 0.996320 0.010648 -0.085047
vn 0.888477 0.000000 -0.458921
vn -0.960922 -0.276278 -0.017301
vn -0.998700 -0.000000 -0.050984
vn -1.000000 0.000000 0.000000
vn -1.000000 -0.000000 0.000000
vn -0.883247 -0.467877 -0.031072
vn 0.930507 0.366274 0.000001
vn 0.965765 0.257468 -0.031763
vn -0.000044 1.000000 -0.000000
vn -0.966017 0.256263 -0.033764
vn -0.966017 0.256263 -0.033764
vn -0.930326 0.366734 0.000001
vn -0.883247 -0.467877 -0.031072
vn -0.842782 -0.538255 0.000001
vn 0.906836 -0.421039 -0.019347
vn -0.883247 -0.467877 -0.031072
vn -0.842782 -0.538255 0.000001
vn 0.873369 -0.487059 -0.000000
vn 1.000000 0.000000 0.000000
vn -0.973340 0.069263 -0.218660
vn 0.886165 0.111731 -0.449697
vn -0.946355 0.129174 -0.296186
vn -0.966017 0.256263 -0.033764
vn -0.999861 0.014318 -0.008520
vn -0.996241 0.070439 -0.050426
vn -0.999861 0.016661 -0.000000
vn 0.999769 0.015951 -0.014435
vn 0.909069 0.129794 -0.395912
vn 1.000000 0.000000 0.000000
vn 0.930507 0.366274 0.000001
vn 0.965765 0.257468 -0.031763
vn 0.886165 0.111731 -0.449697
vn -0.911661 0.078305 -0.403414
vn 0.909069 0.129794 -0.395912
vn -0.946355 0.129174 -0.296186
vn -0.999974 0.000000 -0.007228
vn -1.000000 -0.000000 -0.000000
s 1
g polySurface8
usemtl initialShadingGroup
f 12/1/1 2/2/2 11/3/3
f 2/2/2 41/5/4 11/3/3
f 7/4/5 12/1/1 11/3/3
f 11/3/3 1/7/6 44/8/7
f 7/4/5 11/3/3 44/8/7
f 8/6/8 1/7/6 11/3/3
f 37/10/9 9/12/10 21/11/11
f 21/11/11 9/12/10 42/13/12
f 55/56/13 38/9/14 42/13/12
f 42/13/12 38/9/14 21/11/11
f 31/18/15 4/14/16 43/15/17
f 43/15/17 10/16/18 12/17/1
f 12/17/1 31/18/15 43/15/17
f 46/19/19 2/20/2 12/17/1
f 10/16/18 46/19/19 12/17/1
f 44/23/7 1/22/6 47/24/20
f 48/25/21 44/23/7 47/24/20
f 7/21/5 44/23/7 12/17/1
f 3/26/22 31/18/15 45/27/23
f 12/17/1 44/23/7 31/18/15
f 31/18/15 44/23/7 45/27/23
f 44/23/7 48/25/21 45/27/23
f 4/28/16 54/51/24 43/29/17
f 43/29/17 54/51/24 13/30/25
f 10/31/18 43/29/17 13/30/25
f 46/32/19 10/31/18 13/30/25
f 13/30/25 41/5/4 46/32/19
f 46/32/19 41/5/4 2/2/2
f 1/7/6 8/6/8 47/33/20
f 14/34/26 48/37/21 8/6/8
f 8/6/8 48/37/21 47/33/20
f 39/77/27 14/34/26 8/6/8
f 3/35/22 45/36/23 14/34/26
f 14/34/26 45/36/23 48/37/21
f 32/39/28 15/40/29 49/38/30
f 49/38/30 15/40/29 50/42/31
f 9/12/10 37/10/9 50/42/31
f 50/42/31 37/10/9 49/38/30
f 57/41/32 9/12/10 50/42/31
f 50/42/31 15/40/29 35/63/33
f 35/63/33 57/41/32 50/42/31
f 51/43/34 3/35/22 14/34/26
f 14/34/26 52/45/35 51/43/34
f 52/45/35 16/44/36 51/43/34
f 33/50/37 51/43/34 16/44/36
f 52/45/35 19/61/38 16/44/36
f 4/14/16 31/18/15 26/46/39
f 26/46/39 31/18/15 53/47/40
f 17/48/41 18/53/42 53/47/40
f 53/47/40 18/53/42 26/46/39
f 17/48/41 53/47/40 33/50/37
f 33/50/37 53/47/40 51/49/34
f 53/47/40 31/18/15 51/49/34
f 51/49/34 31/18/15 3/26/22
f 54/51/24 4/28/16 26/52/39
f 26/52/39 18/53/42 54/51/24
f 54/51/24 18/53/42 34/54/43
f 38/9/14 5/55/44 30/74/45
f 55/56/13 5/55/44 38/9/14
f 5/55/44 60/76/46 30/74/45
f 9/57/10 5/55/44 42/58/12
f 5/55/44 55/56/13 42/58/12
f 28/59/47 5/55/44 62/81/48
f 62/81/48 5/55/44 56/60/49
f 56/60/49 19/61/38 62/81/48
f 19/61/38 56/60/49 35/63/33
f 35/63/33 56/60/49 57/62/32
f 56/60/49 5/55/44 57/62/32
f 57/62/32 5/55/44 9/57/10
f 37/71/9 6/64/50 58/65/51
f 36/66/52 20/67/53 58/65/51
f 58/65/51 20/67/53 59/69/54
f 59/69/54 37/71/9 58/65/51
f 49/68/30 37/71/9 59/69/54
f 20/67/53 32/39/28 59/69/54
f 59/69/54 32/39/28 49/68/30
f 6/64/50 37/71/9 29/70/55
f 29/70/55 37/71/9 21/72/11
f 21/72/11 38/73/14 30/74/45
f 29/70/55 21/72/11 30/74/45
f 41/5/4 40/85/56 11/3/3
f 40/85/56 22/75/57 11/3/3
f 63/84/58 30/74/45 60/76/46
f 60/76/46 22/75/57 40/85/56
f 40/85/56 63/84/58 60/76/46
f 39/77/27 22/75/57 60/76/46
f 11/3/3 22/75/57 8/6/8
f 22/75/57 39/77/27 8/6/8
f 23/78/59 14/34/26 39/77/27
f 60/76/46 5/55/44 61/79/60
f 23/78/59 39/77/27 61/79/60
f 61/79/60 39/77/27 60/76/46
f 23/78/59 28/59/47 27/80/61
f 62/81/48 23/78/59 27/80/61
f 5/55/44 28/59/47 61/79/60
f 61/79/60 28/59/47 23/78/59
f 52/45/35 14/34/26 23/78/59
f 23/78/59 62/81/48 52/45/35
f 52/45/35 62/81/48 19/61/38
f 28/59/47 62/81/48 27/80/61
f 34/54/43 24/82/62 58/65/51
f 58/65/51 24/82/62 36/66/52
f 20/67/53 36/66/52 32/39/28
f 36/66/52 24/82/62 32/39/28
f 18/53/42 17/48/41 34/54/43
f 34/54/43 17/48/41 24/82/62
f 35/63/33 15/40/29 19/61/38
f 32/39/28 24/82/62 15/40/29
f 17/48/41 33/50/37 24/82/62
f 33/50/37 16/44/36 24/82/62
f 19/61/38 15/40/29 16/44/36
f 24/82/62 16/44/36 15/40/29
f 34/54/43 58/65/51 54/51/24
f 54/51/24 58/65/51 25/83/63
f 25/83/63 13/30/25 54/51/24
f 25/83/63 58/65/51 6/64/50
f 25/83/63 6/64/50 40/85/56
f 40/85/56 6/64/50 63/84/58
f 6/64/50 29/70/55 63/84/58
f 63/84/58 29/70/55 30/74/45
f 64/86/64 41/5/4 13/30/25
f 64/86/64 13/30/25 25/83/63
f 64/86/64 25/83/63 40/85/56
f 64/86/64 40/85/56 41/5/4
s 14
f 76/87/65 68/90/66 65/88/67
f 68/90/66 83/117/68 65/88/67
f 68/90/66 76/87/65 66/89/69
f 67/91/70 68/90/66 77/92/71
f 77/92/71 68/90/66 66/89/69
f 68/90/66 67/91/70 115/160/72
f 109/94/73 112/93/74 69/95/75
f 69/95/75 112/93/74 70/96/76
f 112/93/74 71/97/77 70/96/76
f 70/96/76 71/97/77 102/143/78
f 72/98/79 74/99/80 73/100/81
f 75/101/82 74/99/80 76/103/65
f 74/99/80 72/98/79 76/103/65
f 84/102/83 76/103/65 65/104/67
f 76/103/65 84/102/83 75/101/82
f 67/107/70 77/106/71 85/108/84
f 85/108/84 77/106/71 78/109/85
f 76/103/65 77/106/71 66/105/69
f 79/111/86 80/110/87 72/98/79
f 80/110/87 77/106/71 72/98/79
f 72/98/79 77/106/71 76/103/65
f 77/106/71 80/110/87 78/109/85
f 81/112/88 82/116/89 74/113/80
f 74/113/80 82/116/89 73/114/81
f 81/112/88 74/113/80 75/115/82
f 123/168/90 82/116/89 81/112/88
f 81/112/88 83/117/68 126/171/91
f 75/115/82 84/118/83 81/112/88
f 84/118/83 83/117/68 81/112/88
f 83/117/68 84/118/83 65/88/67
f 67/91/70 85/119/84 115/160/72
f 115/160/72 85/119/84 87/122/92
f 87/122/92 85/119/84 78/120/85
f 115/160/72 87/122/92 86/121/93
f 117/163/94 86/121/93 119/164/95
f 119/164/95 86/121/93 93/131/96
f 93/131/96 86/121/93 87/122/92
f 87/122/92 80/123/87 93/131/96
f 93/131/96 80/123/87 79/124/86
f 80/123/87 87/122/92 78/120/85
f 89/126/97 88/125/98 90/127/99
f 90/127/99 88/125/98 91/129/100
f 88/125/98 109/94/73 91/129/100
f 91/129/100 109/94/73 69/95/75
f 106/128/101 91/129/100 69/95/75
f 90/127/99 91/129/100 107/150/102
f 91/129/100 106/128/101 107/150/102
f 92/130/103 93/131/96 79/124/86
f 119/164/95 93/131/96 94/132/104
f 93/131/96 92/130/103 94/132/104
f 95/133/105 72/98/79 73/100/81
f 72/98/79 95/133/105 97/135/106
f 95/133/105 96/134/107 97/135/106
f 96/134/107 95/133/105 98/139/108
f 97/135/106 92/136/103 72/98/79
f 72/98/79 92/136/103 79/111/86
f 92/136/103 97/135/106 94/137/104
f 94/137/104 97/135/106 96/134/107
f 73/114/81 82/116/89 95/138/105
f 82/116/89 98/139/108 95/138/105
f 82/116/89 99/140/109 98/139/108
f 101/142/110 71/97/77 100/141/111
f 71/97/77 101/142/110 102/143/78
f 114/159/112 101/142/110 100/141/111
f 70/144/76 101/142/110 69/145/75
f 101/142/110 70/144/76 102/143/78
f 104/147/113 101/142/110 120/165/114
f 120/165/114 101/142/110 103/146/115
f 105/148/116 104/147/113 120/165/114
f 106/149/101 104/147/113 107/150/102
f 107/150/102 104/147/113 105/148/116
f 104/147/113 106/149/101 101/142/110
f 101/142/110 106/149/101 69/145/75
f 109/154/73 108/151/117 124/169/118
f 122/167/119 108/151/117 20/152/120
f 20/152/120 108/151/117 110/153/121
f 108/151/117 109/154/73 110/153/121
f 110/153/121 109/154/73 88/155/98
f 20/152/120 110/153/121 89/126/97
f 89/126/97 110/153/121 88/155/98
f 112/156/74 109/154/73 111/157/122
f 111/157/122 109/154/73 124/169/118
f 100/141/111 71/97/77 112/156/74
f 111/157/122 100/141/111 112/156/74
f 83/117/68 68/90/66 126/171/91
f 126/171/91 68/90/66 113/158/123
f 125/170/124 114/159/112 100/141/111
f 113/158/123 114/159/112 126/171/91
f 114/159/112 125/170/124 126/171/91
f 114/159/112 113/158/123 116/161/125
f 68/90/66 115/160/72 113/158/123
f 113/158/123 115/160/72 116/161/125
f 116/161/125 115/160/72 118/162/126
f 118/162/126 115/160/72 86/121/93
f 116/161/125 101/142/110 114/159/112
f 103/146/115 118/162/126 117/163/94
f 118/162/126 103/146/115 116/161/125
f 116/161/125 103/146/115 101/142/110
f 117/163/94 118/162/126 86/121/93
f 117/163/94 120/165/114 103/146/115
f 105/148/116 120/165/114 121/166/127
f 121/166/127 120/165/114 119/164/95
f 119/164/95 120/165/114 117/163/94
f 108/151/117 122/167/119 82/116/89
f 82/116/89 122/167/119 99/140/109
f 94/132/104 96/134/107 119/164/95
f 20/152/120 89/126/97 122/167/119
f 105/148/116 121/166/127 107/150/102
f 98/139/108 99/140/109 96/134/107
f 99/140/109 122/167/119 96/134/107
f 119/164/95 96/134/107 121/166/127
f 89/126/97 90/127/99 122/167/119
f 107/150/102 121/166/127 90/127/99
f 96/134/107 122/167/119 121/166/127
f 90/127/99 121/166/127 122/167/119
f 82/116/89 123/168/90 108/151/117
f 124/169/118 108/151/117 123/168/90
f 125/170/124 124/169/118 126/171/91
f 126/171/91 124/169/118 123/168/90
f 124/169/118 125/170/124 111/157/122
f 111/157/122 125/170/124 100/141/111
f 81/112/88 126/171/91 123/168/90
