# Blender v2.63 (sub 0) OBJ File: ''
# www.blender.org
mtllib sphere.mtl
o Sphere
v -0.191342 0.461940 0.000000
v -0.353553 0.353553 0.000000
v -0.461940 -0.191342 0.000000
v -0.191342 -0.461940 0.000000
v -0.000000 -0.500000 0.000000
v -0.154799 0.461940 -0.112468
v -0.286031 0.353553 -0.207813
v -0.373717 0.191342 -0.271521
v -0.404509 -0.000000 -0.293893
v -0.373717 -0.191342 -0.271521
v -0.286031 -0.353553 -0.207813
v -0.154799 -0.461940 -0.112468
v -0.059128 0.461940 -0.181977
v -0.109254 0.353553 -0.336249
v -0.142747 0.191342 -0.439331
v -0.154509 -0.000000 -0.475528
v -0.142747 -0.191342 -0.439331
v -0.109254 -0.353553 -0.336249
v -0.059128 -0.461940 -0.181977
v -0.000000 0.500000 0.000000
v 0.059128 0.461940 -0.181977
v 0.109254 0.353553 -0.336249
v 0.142747 0.191342 -0.439331
v 0.154508 -0.000000 -0.475528
v 0.142747 -0.191342 -0.439331
v 0.109254 -0.353553 -0.336249
v 0.059128 -0.461940 -0.181977
v 0.154799 0.461940 -0.112468
v 0.286031 0.353553 -0.207813
v 0.373717 0.191342 -0.271521
v 0.404508 -0.000000 -0.293893
v 0.373717 -0.191342 -0.271521
v 0.286031 -0.353553 -0.207813
v 0.154799 -0.461940 -0.112468
v 0.191342 0.461940 -0.000000
v 0.353553 0.353553 0.000000
v 0.461940 0.191342 0.000000
v 0.500000 -0.000000 -0.000000
v 0.461940 -0.191342 0.000000
v 0.353553 -0.353553 -0.000000
v 0.191342 -0.461940 0.000000
v 0.154799 0.461940 0.112468
v 0.286031 0.353553 0.207813
v 0.373717 0.191342 0.271521
v 0.404508 -0.000000 0.293893
v 0.373717 -0.191342 0.271521
v 0.286031 -0.353553 0.207813
v 0.154799 -0.461940 0.112468
v 0.059128 0.461940 0.181977
v 0.109254 0.353553 0.336249
v 0.142747 0.191342 0.439331
v 0.154508 -0.000000 0.475528
v 0.142747 -0.191342 0.439331
v 0.109254 -0.353553 0.336249
v 0.059128 -0.461940 0.181977
v -0.059128 0.461940 0.181977
v -0.109254 0.353553 0.336249
v -0.142747 0.191342 0.439331
v -0.154508 -0.000000 0.475528
v -0.142747 -0.191342 0.439331
v -0.109254 -0.353553 0.336249
v -0.059128 -0.461940 0.181977
v -0.154799 0.461940 0.112468
v -0.286031 0.353553 0.207813
v -0.373717 0.191342 0.271521
v -0.404508 -0.000000 0.293893
v -0.373717 -0.191342 0.271521
v -0.286031 -0.353553 0.207813
v -0.154799 -0.461940 0.112468
v -0.461940 0.191342 0.000000
v -0.500000 -0.000000 0.000000
v -0.353553 -0.353553 0.000000
vn -0.546734 0.818245 -0.177644
vn -0.337900 -0.818245 -0.465080
vn -0.496091 0.536342 -0.682811
vn -0.496091 -0.536342 -0.682811
vn -0.337900 0.818245 -0.465080
vn -0.577542 -0.185880 -0.794918
vn -0.577542 0.185880 -0.794918
vn 0.000000 -0.818245 -0.574870
vn 0.000000 0.536342 -0.844001
vn 0.000000 -0.536342 -0.844001
vn 0.000000 0.818245 -0.574870
vn 0.000000 -0.185880 -0.982572
vn 0.000000 0.185880 -0.982572
vn 0.337900 -0.818245 -0.465080
vn 0.496091 0.536342 -0.682811
vn 0.496091 -0.536342 -0.682811
vn 0.337900 0.818245 -0.465080
vn 0.577542 -0.185880 -0.794918
vn 0.577542 0.185880 -0.794918
vn 0.546734 -0.818245 -0.177645
vn 0.802692 0.536342 -0.260811
vn 0.802692 -0.536342 -0.260811
vn 0.546734 0.818245 -0.177645
vn 0.934482 -0.185880 -0.303632
vn 0.934482 0.185880 -0.303632
vn 0.546734 -0.818245 0.177645
vn 0.802692 0.536342 0.260811
vn 0.802692 -0.536342 0.260811
vn 0.546734 0.818245 0.177645
vn 0.934482 -0.185880 0.303632
vn 0.934482 0.185880 0.303632
vn 0.337900 -0.818245 0.465079
vn 0.496091 0.536342 0.682811
vn 0.496091 -0.536342 0.682811
vn 0.337900 0.818245 0.465080
vn 0.577542 -0.185880 0.794918
vn 0.577542 0.185880 0.794918
vn 0.000000 -0.818245 0.574870
vn 0.000000 0.536342 0.844001
vn 0.000000 -0.536342 0.844001
vn 0.000000 0.818245 0.574870
vn 0.000000 -0.185880 0.982572
vn 0.000000 0.185880 0.982572
vn -0.337900 -0.818245 0.465080
vn -0.496091 0.536342 0.682811
vn -0.496091 -0.536342 0.682811
vn -0.337900 0.818245 0.465080
vn -0.577542 -0.185880 0.794918
vn -0.577541 0.185880 0.794918
vn -0.934482 0.185880 0.303632
vn -0.934482 -0.185880 -0.303632
vn -0.194700 -0.978821 -0.063262
vn -0.194700 0.978821 -0.063261
vn -0.934482 0.185880 -0.303632
vn -0.546734 -0.818245 -0.177645
vn -0.802692 0.536342 -0.260811
vn -0.802692 -0.536342 -0.260811
vn -0.120331 -0.978821 -0.165621
vn -0.120331 0.978821 -0.165621
vn 0.000000 -0.978821 -0.204719
vn 0.000000 0.978821 -0.204719
vn 0.120331 -0.978821 -0.165621
vn 0.120331 0.978821 -0.165621
vn 0.194700 -0.978821 -0.063262
vn 0.194699 0.978821 -0.063262
vn 0.194700 -0.978821 0.063262
vn 0.194699 0.978821 0.063262
vn 0.120331 -0.978821 0.165621
vn 0.120331 0.978821 0.165621
vn 0.000000 -0.978821 0.204719
vn 0.000000 0.978821 0.204719
vn -0.120331 -0.978821 0.165621
vn -0.120331 0.978821 0.165621
vn -0.546734 -0.818245 0.177645
vn -0.802692 0.536342 0.260811
vn -0.802692 -0.536342 0.260811
vn -0.546734 0.818245 0.177644
vn -0.934482 -0.185880 0.303632
vn -0.194700 -0.978821 0.063262
vn -0.194700 0.978821 0.063261
usemtl 
s off
f 2//1 1//1 6//1 7//1
f 18//2 19//2 12//2 11//2
f 14//3 15//3 8//3 7//3
f 17//4 18//4 11//4 10//4
f 13//5 14//5 7//5 6//5
f 16//6 17//6 10//6 9//6
f 15//7 16//7 9//7 8//7
f 26//8 27//8 19//8 18//8
f 22//9 23//9 15//9 14//9
f 25//10 26//10 18//10 17//10
f 21//11 22//11 14//11 13//11
f 24//12 25//12 17//12 16//12
f 23//13 24//13 16//13 15//13
f 33//14 34//14 27//14 26//14
f 29//15 30//15 23//15 22//15
f 32//16 33//16 26//16 25//16
f 28//17 29//17 22//17 21//17
f 31//18 32//18 25//18 24//18
f 30//19 31//19 24//19 23//19
f 40//20 41//20 34//20 33//20
f 36//21 37//21 30//21 29//21
f 39//22 40//22 33//22 32//22
f 35//23 36//23 29//23 28//23
f 38//24 39//24 32//24 31//24
f 37//25 38//25 31//25 30//25
f 47//26 48//26 41//26 40//26
f 43//27 44//27 37//27 36//27
f 46//28 47//28 40//28 39//28
f 42//29 43//29 36//29 35//29
f 45//30 46//30 39//30 38//30
f 44//31 45//31 38//31 37//31
f 54//32 55//32 48//32 47//32
f 50//33 51//33 44//33 43//33
f 53//34 54//34 47//34 46//34
f 49//35 50//35 43//35 42//35
f 52//36 53//36 46//36 45//36
f 51//37 52//37 45//37 44//37
f 61//38 62//38 55//38 54//38
f 57//39 58//39 51//39 50//39
f 60//40 61//40 54//40 53//40
f 56//41 57//41 50//41 49//41
f 59//42 60//42 53//42 52//42
f 58//43 59//43 52//43 51//43
f 68//44 69//44 62//44 61//44
f 64//45 65//45 58//45 57//45
f 67//46 68//46 61//46 60//46
f 63//47 64//47 57//47 56//47
f 66//48 67//48 60//48 59//48
f 65//49 66//49 59//49 58//49
f 70//50 71//50 66//50 65//50
f 9//51 10//51 3//51 71//51
f 12//52 5//52 4//52
f 6//53 1//53 20//53
f 8//54 9//54 71//54 70//54
f 11//55 12//55 4//55 72//55
f 7//56 8//56 70//56 2//56
f 10//57 11//57 72//57 3//57
f 19//58 5//58 12//58
f 20//59 13//59 6//59
f 27//60 5//60 19//60
f 20//61 21//61 13//61
f 34//62 5//62 27//62
f 20//63 28//63 21//63
f 41//64 5//64 34//64
f 20//65 35//65 28//65
f 48//66 5//66 41//66
f 20//67 42//67 35//67
f 55//68 5//68 48//68
f 20//69 49//69 42//69
f 62//70 5//70 55//70
f 20//71 56//71 49//71
f 69//72 5//72 62//72
f 20//73 63//73 56//73
f 72//74 4//74 69//74 68//74
f 2//75 70//75 65//75 64//75
f 3//76 72//76 68//76 67//76
f 1//77 2//77 64//77 63//77
f 71//78 3//78 67//78 66//78
f 4//79 5//79 69//79
f 20//80 1//80 63//80
